<?xml version="1.0" standalone="no"?>
<!DOCTYPE svg PUBLIC "-//W3C//DTD SVG 20010904//EN"
 "http://www.w3.org/TR/2001/REC-SVG-20010904/DTD/svg10.dtd">
<svg version="1.0" xmlns="http://www.w3.org/2000/svg"
 width="500.000000pt" height="500.000000pt" viewBox="0 0 500.000000 500.000000"
 preserveAspectRatio="xMidYMid meet">
<metadata>
Created by potrace 1.16, written by Peter Selinger 2001-2019
</metadata>
<g transform="translate(0.000000,500.000000) scale(0.100000,-0.100000)"
fill="#000000" stroke="none">
<path d="M1310 4770 l0 -80 -75 0 -75 0 0 -180 0 -180 75 0 75 0 0 -55 0 -55
-162 -2 -163 -3 -3 -87 -3 -88 -74 0 -75 0 0 -75 0 -75 -85 0 -85 0 0 -85 0
-85 -75 0 -75 0 0 -75 0 -75 -80 0 -80 0 0 -165 0 -165 -85 0 -85 0 0 -335 0
-335 85 0 85 0 0 -225 0 -225 -85 0 -85 0 2 -418 3 -417 82 -3 83 -3 0 -84 0
-85 240 0 240 0 0 -75 0 -75 75 0 75 0 0 -76 c0 -52 4 -80 14 -90 11 -11 48
-14 165 -14 l151 0 0 -75 0 -75 80 0 80 0 0 -80 0 -80 80 0 80 0 0 -80 0 -80
85 0 85 0 0 -80 0 -80 895 0 895 0 0 80 0 80 75 0 75 0 0 95 0 95 -75 0 -75 0
0 69 c0 101 0 101 -86 101 l-74 0 0 55 0 55 243 2 242 3 3 87 3 88 159 0 160
0 0 75 0 75 75 0 75 0 0 160 0 160 80 0 80 0 0 165 0 165 85 0 85 0 0 160 0
160 80 0 80 0 0 175 0 175 -80 0 -80 0 0 310 0 310 80 0 80 0 0 335 0 335 -80
0 -80 0 0 85 0 85 -325 0 -325 0 0 75 0 75 -75 0 -75 0 0 76 c0 52 -4 80 -14
90 -11 11 -48 14 -165 14 l-151 0 0 75 0 75 -80 0 -80 0 0 80 0 80 -80 0 -80
0 0 80 0 80 -85 0 -85 0 0 80 0 80 -895 0 -895 0 0 -80z m1458 -492 l3 -78
162 -2 162 -3 3 -163 2 -162 223 6 c122 3 228 7 235 10 8 2 12 26 12 74 l0 70
165 0 165 0 0 -80 0 -80 80 0 80 0 0 -80 0 -80 165 0 165 0 -6 -957 c-3 -527
-7 -963 -9 -970 -3 -8 -31 -13 -77 -15 l-73 -3 -3 -157 -3 -158 -79 0 -79 0
-3 -157 -3 -158 -77 -3 -78 -3 0 -79 0 -80 -245 0 c-157 0 -245 4 -245 10 0
13 -133 13 -146 0 -5 -5 -45 -10 -89 -12 l-80 -3 3 -157 4 -158 -566 0 -565 0
-3 78 -3 77 -77 3 -77 3 -3 157 -3 157 -237 3 -238 2 0 -80 0 -80 -162 2 -163
3 0 70 0 70 76 3 76 3 6 121 c10 170 8 510 -2 526 -5 9 -29 12 -82 10 l-74 -3
-5 -75 -5 -75 -77 -3 -78 -3 0 -164 0 -165 80 0 80 0 0 -80 0 -80 -80 0 -80 0
0 80 0 80 -160 0 -160 0 0 325 0 325 155 0 155 0 0 315 0 315 -69 0 c-54 0
-70 4 -75 16 -3 9 -6 83 -6 164 l0 149 -77 3 -78 3 -3 78 -3 77 81 0 80 0 0
165 0 165 74 0 74 0 7 160 8 160 73 0 72 0 6 78 c3 42 8 111 12 153 l6 77 149
7 c83 4 152 6 154 4 2 -2 5 -76 7 -164 l3 -160 -77 -3 -78 -3 0 -278 c0 -153
-3 -333 -7 -399 l-6 -122 -69 0 -68 0 0 -480 0 -481 148 3 147 3 9 153 9 152
73 0 74 0 0 -75 0 -75 80 0 80 0 3 83 c1 45 2 262 2 482 l0 400 78 3 77 3 0
234 0 235 -75 0 -75 0 0 85 0 85 -80 0 -80 0 0 160 0 159 158 3 157 3 5 80 5
80 73 3 72 3 0 74 c0 49 4 75 13 78 6 3 188 5 402 4 l390 -2 3 -77z m-1298
-168 l0 -70 -65 0 -65 0 0 70 0 70 65 0 65 0 0 -70z"/>
<path d="M3583 3863 c-10 -3 -13 -42 -13 -143 0 -76 -3 -145 -6 -154 -5 -14
-29 -16 -162 -16 l-155 0 6 -122 c4 -66 7 -138 7 -159 l0 -38 78 -3 77 -3 5
-80 5 -80 73 -3 72 -3 0 -154 0 -154 -77 -3 -78 -3 -3 -242 -2 -242 77 -3 78
-3 3 -237 2 -238 -67 0 c-38 0 -74 -4 -81 -9 -9 -5 -12 -30 -10 -87 l3 -79
160 0 160 0 3 167 2 167 78 3 77 3 3 634 c2 493 5 637 15 643 6 4 42 8 80 8
l67 0 0 240 0 240 -80 0 -80 0 0 74 c0 58 -3 75 -16 80 -19 7 -283 7 -301 -1z
m155 -395 l3 -78 -86 0 -85 0 0 80 0 81 83 -3 82 -3 3 -77z"/>
<path d="M2297 3588 c-4 -66 -7 -138 -7 -160 l0 -38 160 0 160 0 0 160 0 160
-153 0 -154 0 -6 -122z"/>
<path d="M2615 3218 c-3 -8 -4 -81 -3 -163 l3 -150 157 -3 157 -3 6 24 c4 13
5 48 3 78 l-3 54 -80 5 -80 5 -5 80 -5 80 -73 3 c-53 2 -74 -1 -77 -10z"/>
<path d="M1802 2983 l3 -78 83 -3 82 -3 0 -74 0 -75 75 0 75 0 0 75 0 75 -75
0 -74 0 -3 78 -3 77 -83 3 -83 3 3 -78z"/>
<path d="M2454 2583 l-162 -3 -7 -161 -7 -160 -72 3 -71 3 -3 158 -3 157 -85
0 -85 0 3 -396 c2 -285 6 -398 15 -405 6 -6 42 -9 80 -7 l68 3 0 160 0 160 85
3 85 3 -3 74 -4 75 81 0 81 0 0 -75 0 -74 -77 -3 -78 -3 -3 -157 -3 -158 241
0 240 0 0 160 0 161 83 -3 82 -3 -3 -140 c-4 -192 -7 -185 76 -185 37 0 72 4
78 8 7 5 11 139 12 405 l2 397 -84 0 -85 0 -3 -157 -3 -158 -72 -3 -73 -3 0
154 c0 106 -4 157 -12 165 -8 8 -38 11 -82 10 -39 -1 -144 -4 -232 -5z m316
-408 l0 -75 -75 0 -75 0 0 75 0 75 75 0 75 0 0 -75z m-162 -157 l-3 -83 -77
-3 -78 -3 0 86 0 85 80 0 81 0 -3 -82z"/>
<path d="M2130 1690 l0 -80 80 0 79 0 3 -77 3 -78 78 -3 77 -3 0 -79 0 -80 80
0 80 0 0 80 0 80 -80 0 -80 0 0 80 0 80 -80 0 -80 0 0 80 0 80 -80 0 -80 0 0
-80z"/>
<path d="M2772 1693 l3 -78 78 -3 77 -3 0 81 0 80 -80 0 -81 0 3 -77z"/>
<path d="M1810 1685 l0 -75 -160 0 -160 0 0 -75 0 -75 233 2 232 3 3 148 3
147 -76 0 -75 0 0 -75z"/>
<path d="M2612 1533 l3 -78 78 -3 77 -3 0 81 0 80 -80 0 -81 0 3 -77z"/>
</g>
</svg>
